<svg xmlns="http://www.w3.org/2000/svg" xmlns:xlink="http://www.w3.org/1999/xlink" viewBox="0,0,256,256" width="35px" height="35px" fill-rule="nonzero"><g fill="#f2531e" fill-rule="nonzero" stroke="none" stroke-width="1" stroke-linecap="butt" stroke-linejoin="miter" stroke-miterlimit="10" stroke-dasharray="" stroke-dashoffset="0" font-family="none" font-weight="none" font-size="none" text-anchor="none" style="mix-blend-mode: normal"><g transform="scale(2.56,2.56)"><path d="M25.26172,16.99609c-0.26045,0.00364 -0.50921,0.10874 -0.69336,0.29297l-7.27148,7.27148c-0.39091,0.38999 -0.39178,1.02299 -0.00195,1.41406l24.01758,24.02539l-24.01953,24.01953c-0.39037,0.39053 -0.39037,1.02353 0,1.41406l7.27344,7.27539c0.39053,0.39037 1.02353,0.39037 1.41406,0l24.01953,-24.01953l24.01563,24.02149c0.39053,0.39037 1.02353,0.39037 1.41406,0l7.27344,-7.27148c0.39037,-0.39053 0.39037,-1.02353 0,-1.41406l-24.01562,-24.02344l24.01953,-24.01953c0.39037,-0.39053 0.39037,-1.02353 0,-1.41406l-7.27344,-7.27539c-0.39053,-0.39037 -1.02353,-0.39037 -1.41406,0l-24.01953,24.01953l-24.01758,-24.02344c-0.19085,-0.19092 -0.45077,-0.29658 -0.7207,-0.29297zM25.27539,19.41016l24.01758,24.02344c0.39053,0.39037 1.02353,0.39037 1.41406,0l24.01953,-24.01758l5.85938,5.85938l-24.01953,24.01953c-0.39037,0.39053 -0.39037,1.02353 0,1.41406l24.01563,24.02344l-5.85937,5.85547l-24.01562,-24.01953c-0.39053,-0.39037 -1.02353,-0.39037 -1.41406,0l-24.01953,24.01758l-5.85938,-5.85938l24.01953,-24.01953c0.39037,-0.39053 0.39037,-1.02353 0,-1.41406l-24.01562,-24.02539zM25.49414,24.99414c-0.20372,0.00004 -0.38705,0.12367 -0.46345,0.31252c-0.0764,0.18885 -0.03059,0.40518 0.1158,0.54685l1,1c0.12541,0.13061 0.31163,0.18321 0.48684,0.13753c0.17521,-0.04568 0.31204,-0.18251 0.35772,-0.35772c0.04568,-0.17521 -0.00693,-0.36143 -0.13753,-0.48684l-1,-1c-0.09421,-0.09737 -0.22389,-0.15234 -0.35937,-0.15234zM74.49023,24.99609c-0.12976,0.00361 -0.25303,0.05754 -0.34375,0.15039l-1,1c-0.13061,0.12541 -0.18321,0.31163 -0.13753,0.48684c0.04568,0.17521 0.18251,0.31204 0.35772,0.35772c0.17521,0.04568 0.36143,-0.00693 0.48684,-0.13753l1,-1c0.14714,-0.14386 0.19113,-0.36316 0.11086,-0.55264c-0.08028,-0.18947 -0.26844,-0.31042 -0.47414,-0.30478zM28.49414,27.99414c-0.20372,0.00004 -0.38705,0.12367 -0.46345,0.31252c-0.0764,0.18885 -0.03059,0.40518 0.1158,0.54685l2,2c0.12541,0.13061 0.31163,0.18321 0.48684,0.13753c0.17521,-0.04568 0.31204,-0.18251 0.35772,-0.35772c0.04568,-0.17521 -0.00693,-0.36143 -0.13753,-0.48684l-2,-2c-0.09421,-0.09737 -0.22389,-0.15234 -0.35937,-0.15234zM71.49023,27.99609c-0.12976,0.00361 -0.25303,0.05754 -0.34375,0.15039l-21.14648,21.14649l-17.14648,-17.14648c-0.09421,-0.09737 -0.22389,-0.15234 -0.35937,-0.15234c-0.20372,0.00004 -0.38705,0.12367 -0.46345,0.31252c-0.0764,0.18885 -0.03059,0.40518 0.1158,0.54685l17.14648,17.14648l-21.14648,21.14648c-0.13061,0.12541 -0.18321,0.31163 -0.13753,0.48684c0.04568,0.17521 0.18251,0.31204 0.35772,0.35772c0.17521,0.04568 0.36143,-0.00693 0.48684,-0.13753l21.14648,-21.14648l17.14648,17.14648c0.12541,0.13061 0.31163,0.18321 0.48684,0.13753c0.17521,-0.04568 0.31204,-0.18251 0.35772,-0.35772c0.04568,-0.17521 -0.00693,-0.36143 -0.13753,-0.48684l-17.14648,-17.14648l21.14649,-21.14648c0.14714,-0.14386 0.19113,-0.36316 0.11086,-0.55264c-0.08028,-0.18947 -0.26844,-0.31042 -0.47414,-0.30478zM69.49414,68.99414c-0.20372,0.00004 -0.38705,0.12367 -0.46345,0.31252c-0.0764,0.18885 -0.03059,0.40518 0.1158,0.54685l2,2c0.12541,0.13061 0.31163,0.18321 0.48684,0.13753c0.17521,-0.04568 0.31204,-0.18251 0.35772,-0.35772c0.04568,-0.17521 -0.00693,-0.36143 -0.13753,-0.48684l-2,-2c-0.09421,-0.09737 -0.22389,-0.15234 -0.35937,-0.15234zM73.49414,72.99414c-0.20372,0.00004 -0.38705,0.12367 -0.46345,0.31252c-0.0764,0.18885 -0.03059,0.40518 0.1158,0.54685l1,1c0.12541,0.13061 0.31163,0.18321 0.48684,0.13753c0.17521,-0.04568 0.31204,-0.18251 0.35772,-0.35772c0.04568,-0.17521 -0.00693,-0.36143 -0.13753,-0.48684l-1,-1c-0.09421,-0.09737 -0.22389,-0.15234 -0.35937,-0.15234zM26.49023,72.99609c-0.12976,0.00361 -0.25303,0.05754 -0.34375,0.15039l-1,1c-0.13061,0.12541 -0.18321,0.31163 -0.13753,0.48684c0.04568,0.17521 0.18251,0.31204 0.35772,0.35772c0.17521,0.04568 0.36143,-0.00693 0.48684,-0.13753l1,-1c0.14714,-0.14386 0.19113,-0.36316 0.11086,-0.55264c-0.08028,-0.18947 -0.26844,-0.31042 -0.47414,-0.30478z"></path></g></g></svg>